<mxfile host="app.diagrams.net" modified="2024-06-04T16:09:58.921Z" agent="Mozilla/5.0 (Macintosh; Intel Mac OS X 10.15; rv:126.0) Gecko/20100101 Firefox/126.0" etag="fMKZPOSt18ccxPtPMz8T" version="24.4.13" type="github">
  <diagram name="Key-Value Store" id="b5rsdSKNQmYp97aVHQ_w">
    <mxGraphModel dx="1368" dy="2017" grid="1" gridSize="10" guides="1" tooltips="1" connect="1" arrows="1" fold="1" page="1" pageScale="1" pageWidth="850" pageHeight="1100" math="0" shadow="0">
      <root>
        <mxCell id="0" />
        <mxCell id="1" parent="0" />
        <mxCell id="RA9PLU7IPXOXIIU9lRka-3" value="" style="edgeStyle=orthogonalEdgeStyle;rounded=0;orthogonalLoop=1;jettySize=auto;html=1;" parent="1" source="RA9PLU7IPXOXIIU9lRka-1" target="RA9PLU7IPXOXIIU9lRka-2" edge="1">
          <mxGeometry relative="1" as="geometry" />
        </mxCell>
        <mxCell id="RA9PLU7IPXOXIIU9lRka-5" value="" style="edgeStyle=orthogonalEdgeStyle;rounded=0;orthogonalLoop=1;jettySize=auto;html=1;" parent="1" source="RA9PLU7IPXOXIIU9lRka-1" target="RA9PLU7IPXOXIIU9lRka-4" edge="1">
          <mxGeometry relative="1" as="geometry" />
        </mxCell>
        <mxCell id="RA9PLU7IPXOXIIU9lRka-51" value="Step 1" style="edgeLabel;html=1;align=center;verticalAlign=middle;resizable=0;points=[];" parent="RA9PLU7IPXOXIIU9lRka-5" vertex="1" connectable="0">
          <mxGeometry x="0.0991" y="-2" relative="1" as="geometry">
            <mxPoint as="offset" />
          </mxGeometry>
        </mxCell>
        <mxCell id="RA9PLU7IPXOXIIU9lRka-7" value="" style="edgeStyle=orthogonalEdgeStyle;rounded=0;orthogonalLoop=1;jettySize=auto;html=1;" parent="1" source="RA9PLU7IPXOXIIU9lRka-1" target="RA9PLU7IPXOXIIU9lRka-6" edge="1">
          <mxGeometry relative="1" as="geometry">
            <Array as="points">
              <mxPoint x="1530" y="760" />
              <mxPoint x="1680" y="760" />
              <mxPoint x="1680" y="600" />
            </Array>
          </mxGeometry>
        </mxCell>
        <mxCell id="RA9PLU7IPXOXIIU9lRka-52" value="Step 2" style="edgeLabel;html=1;align=center;verticalAlign=middle;resizable=0;points=[];" parent="RA9PLU7IPXOXIIU9lRka-7" vertex="1" connectable="0">
          <mxGeometry x="-0.1333" y="-4" relative="1" as="geometry">
            <mxPoint as="offset" />
          </mxGeometry>
        </mxCell>
        <mxCell id="RA9PLU7IPXOXIIU9lRka-9" value="" style="edgeStyle=orthogonalEdgeStyle;rounded=0;orthogonalLoop=1;jettySize=auto;html=1;" parent="1" source="RA9PLU7IPXOXIIU9lRka-1" target="RA9PLU7IPXOXIIU9lRka-8" edge="1">
          <mxGeometry relative="1" as="geometry" />
        </mxCell>
        <mxCell id="RA9PLU7IPXOXIIU9lRka-53" value="Step 3" style="edgeLabel;html=1;align=center;verticalAlign=middle;resizable=0;points=[];" parent="RA9PLU7IPXOXIIU9lRka-9" vertex="1" connectable="0">
          <mxGeometry x="0.0133" y="1" relative="1" as="geometry">
            <mxPoint as="offset" />
          </mxGeometry>
        </mxCell>
        <mxCell id="RA9PLU7IPXOXIIU9lRka-12" value="" style="edgeStyle=orthogonalEdgeStyle;rounded=0;orthogonalLoop=1;jettySize=auto;html=1;" parent="1" source="RA9PLU7IPXOXIIU9lRka-1" target="RA9PLU7IPXOXIIU9lRka-2" edge="1">
          <mxGeometry relative="1" as="geometry" />
        </mxCell>
        <mxCell id="RA9PLU7IPXOXIIU9lRka-15" style="edgeStyle=orthogonalEdgeStyle;rounded=0;orthogonalLoop=1;jettySize=auto;html=1;exitX=0.75;exitY=1;exitDx=0;exitDy=0;entryX=0.5;entryY=0;entryDx=0;entryDy=0;" parent="1" source="RA9PLU7IPXOXIIU9lRka-1" target="RA9PLU7IPXOXIIU9lRka-14" edge="1">
          <mxGeometry relative="1" as="geometry">
            <Array as="points">
              <mxPoint x="1530" y="880" />
              <mxPoint x="1680" y="880" />
              <mxPoint x="1680" y="1040" />
              <mxPoint x="1800" y="1040" />
            </Array>
            <mxPoint x="1930" y="1040" as="targetPoint" />
          </mxGeometry>
        </mxCell>
        <mxCell id="RA9PLU7IPXOXIIU9lRka-54" value="Step 4" style="edgeLabel;html=1;align=center;verticalAlign=middle;resizable=0;points=[];" parent="RA9PLU7IPXOXIIU9lRka-15" vertex="1" connectable="0">
          <mxGeometry x="0.3841" y="-4" relative="1" as="geometry">
            <mxPoint as="offset" />
          </mxGeometry>
        </mxCell>
        <mxCell id="RA9PLU7IPXOXIIU9lRka-1" value="Key - Value Store" style="rounded=1;whiteSpace=wrap;html=1;fillColor=#f8cecc;strokeColor=#b85450;" parent="1" vertex="1">
          <mxGeometry x="1440" y="800" width="120" height="40" as="geometry" />
        </mxCell>
        <mxCell id="RA9PLU7IPXOXIIU9lRka-2" value="Distributed Hash&lt;br&gt;Tables (DHT)" style="ellipse;shape=cloud;whiteSpace=wrap;html=1;rounded=1;" parent="1" vertex="1">
          <mxGeometry x="1440" y="920" width="120" height="80" as="geometry" />
        </mxCell>
        <mxCell id="RA9PLU7IPXOXIIU9lRka-11" value="" style="edgeStyle=orthogonalEdgeStyle;rounded=0;orthogonalLoop=1;jettySize=auto;html=1;" parent="1" source="RA9PLU7IPXOXIIU9lRka-4" target="RA9PLU7IPXOXIIU9lRka-10" edge="1">
          <mxGeometry relative="1" as="geometry" />
        </mxCell>
        <mxCell id="RA9PLU7IPXOXIIU9lRka-18" style="edgeStyle=orthogonalEdgeStyle;rounded=0;orthogonalLoop=1;jettySize=auto;html=1;entryX=0.5;entryY=1;entryDx=0;entryDy=0;" parent="1" source="RA9PLU7IPXOXIIU9lRka-4" target="RA9PLU7IPXOXIIU9lRka-16" edge="1">
          <mxGeometry relative="1" as="geometry">
            <Array as="points">
              <mxPoint x="1500" y="400" />
              <mxPoint x="1260" y="400" />
            </Array>
          </mxGeometry>
        </mxCell>
        <mxCell id="RA9PLU7IPXOXIIU9lRka-73" value="1" style="edgeLabel;html=1;align=center;verticalAlign=middle;resizable=0;points=[];" parent="RA9PLU7IPXOXIIU9lRka-18" vertex="1" connectable="0">
          <mxGeometry x="0.3121" relative="1" as="geometry">
            <mxPoint as="offset" />
          </mxGeometry>
        </mxCell>
        <mxCell id="RA9PLU7IPXOXIIU9lRka-19" style="edgeStyle=orthogonalEdgeStyle;rounded=0;orthogonalLoop=1;jettySize=auto;html=1;entryX=0.5;entryY=1;entryDx=0;entryDy=0;" parent="1" source="RA9PLU7IPXOXIIU9lRka-4" target="RA9PLU7IPXOXIIU9lRka-17" edge="1">
          <mxGeometry relative="1" as="geometry">
            <Array as="points">
              <mxPoint x="1500" y="400" />
              <mxPoint x="1740" y="400" />
            </Array>
          </mxGeometry>
        </mxCell>
        <mxCell id="RA9PLU7IPXOXIIU9lRka-21" value="Requirements" style="edgeLabel;html=1;align=center;verticalAlign=middle;resizable=0;points=[];" parent="RA9PLU7IPXOXIIU9lRka-19" vertex="1" connectable="0">
          <mxGeometry x="-0.7364" y="-1" relative="1" as="geometry">
            <mxPoint as="offset" />
          </mxGeometry>
        </mxCell>
        <mxCell id="RA9PLU7IPXOXIIU9lRka-74" value="2" style="edgeLabel;html=1;align=center;verticalAlign=middle;resizable=0;points=[];" parent="RA9PLU7IPXOXIIU9lRka-19" vertex="1" connectable="0">
          <mxGeometry x="-0.0545" y="2" relative="1" as="geometry">
            <mxPoint as="offset" />
          </mxGeometry>
        </mxCell>
        <mxCell id="RA9PLU7IPXOXIIU9lRka-23" style="edgeStyle=orthogonalEdgeStyle;rounded=0;orthogonalLoop=1;jettySize=auto;html=1;exitX=0.25;exitY=0;exitDx=0;exitDy=0;entryX=0.5;entryY=1;entryDx=0;entryDy=0;" parent="1" source="RA9PLU7IPXOXIIU9lRka-4" target="RA9PLU7IPXOXIIU9lRka-22" edge="1">
          <mxGeometry relative="1" as="geometry">
            <Array as="points">
              <mxPoint x="1440" y="500" />
              <mxPoint x="1440" y="440" />
              <mxPoint x="980" y="440" />
            </Array>
          </mxGeometry>
        </mxCell>
        <mxCell id="RA9PLU7IPXOXIIU9lRka-75" value="3" style="edgeLabel;html=1;align=center;verticalAlign=middle;resizable=0;points=[];" parent="RA9PLU7IPXOXIIU9lRka-23" vertex="1" connectable="0">
          <mxGeometry x="-0.0715" y="-2" relative="1" as="geometry">
            <mxPoint as="offset" />
          </mxGeometry>
        </mxCell>
        <mxCell id="RA9PLU7IPXOXIIU9lRka-25" style="edgeStyle=orthogonalEdgeStyle;rounded=0;orthogonalLoop=1;jettySize=auto;html=1;exitX=0.75;exitY=0;exitDx=0;exitDy=0;entryX=0.5;entryY=1;entryDx=0;entryDy=0;" parent="1" source="RA9PLU7IPXOXIIU9lRka-4" target="RA9PLU7IPXOXIIU9lRka-24" edge="1">
          <mxGeometry relative="1" as="geometry">
            <Array as="points">
              <mxPoint x="1560" y="500" />
              <mxPoint x="1560" y="440" />
              <mxPoint x="2090" y="440" />
            </Array>
          </mxGeometry>
        </mxCell>
        <mxCell id="RA9PLU7IPXOXIIU9lRka-76" value="4" style="edgeLabel;html=1;align=center;verticalAlign=middle;resizable=0;points=[];" parent="RA9PLU7IPXOXIIU9lRka-25" vertex="1" connectable="0">
          <mxGeometry x="-0.1105" y="-2" relative="1" as="geometry">
            <mxPoint as="offset" />
          </mxGeometry>
        </mxCell>
        <mxCell id="RA9PLU7IPXOXIIU9lRka-4" value="1. Design a Key -&lt;br&gt;Value Store" style="rounded=1;whiteSpace=wrap;html=1;" parent="1" vertex="1">
          <mxGeometry x="1440" y="500" width="120" height="60" as="geometry" />
        </mxCell>
        <mxCell id="RA9PLU7IPXOXIIU9lRka-56" value="" style="edgeStyle=orthogonalEdgeStyle;rounded=0;orthogonalLoop=1;jettySize=auto;html=1;" parent="1" source="RA9PLU7IPXOXIIU9lRka-6" target="RA9PLU7IPXOXIIU9lRka-55" edge="1">
          <mxGeometry relative="1" as="geometry">
            <Array as="points">
              <mxPoint x="2200" y="600" />
              <mxPoint x="2200" y="480" />
              <mxPoint x="2660" y="480" />
            </Array>
          </mxGeometry>
        </mxCell>
        <mxCell id="RA9PLU7IPXOXIIU9lRka-77" value="1" style="edgeLabel;html=1;align=center;verticalAlign=middle;resizable=0;points=[];" parent="RA9PLU7IPXOXIIU9lRka-56" vertex="1" connectable="0">
          <mxGeometry x="0.7174" y="-1" relative="1" as="geometry">
            <mxPoint as="offset" />
          </mxGeometry>
        </mxCell>
        <mxCell id="RA9PLU7IPXOXIIU9lRka-68" style="edgeStyle=orthogonalEdgeStyle;rounded=0;orthogonalLoop=1;jettySize=auto;html=1;entryX=0;entryY=0.5;entryDx=0;entryDy=0;" parent="1" source="RA9PLU7IPXOXIIU9lRka-6" target="RA9PLU7IPXOXIIU9lRka-67" edge="1">
          <mxGeometry relative="1" as="geometry">
            <Array as="points">
              <mxPoint x="2200" y="600" />
              <mxPoint x="2200" y="480" />
              <mxPoint x="2680" y="480" />
            </Array>
          </mxGeometry>
        </mxCell>
        <mxCell id="RA9PLU7IPXOXIIU9lRka-78" value="2" style="edgeLabel;html=1;align=center;verticalAlign=middle;resizable=0;points=[];" parent="RA9PLU7IPXOXIIU9lRka-68" vertex="1" connectable="0">
          <mxGeometry x="0.8982" y="-2" relative="1" as="geometry">
            <mxPoint as="offset" />
          </mxGeometry>
        </mxCell>
        <mxCell id="RA9PLU7IPXOXIIU9lRka-6" value="2. &lt;br&gt;Hashing &amp;amp; Replication &lt;br&gt;Ensuring Scalability &amp;amp; &lt;br&gt;Replication" style="whiteSpace=wrap;html=1;rounded=1;" parent="1" vertex="1">
          <mxGeometry x="1960" y="560" width="120" height="80" as="geometry" />
        </mxCell>
        <mxCell id="RA9PLU7IPXOXIIU9lRka-80" value="" style="edgeStyle=orthogonalEdgeStyle;rounded=0;orthogonalLoop=1;jettySize=auto;html=1;" parent="1" source="RA9PLU7IPXOXIIU9lRka-8" target="RA9PLU7IPXOXIIU9lRka-79" edge="1">
          <mxGeometry relative="1" as="geometry">
            <Array as="points">
              <mxPoint x="2160" y="820" />
              <mxPoint x="2160" y="690" />
            </Array>
          </mxGeometry>
        </mxCell>
        <mxCell id="RA9PLU7IPXOXIIU9lRka-8" value="3. &lt;br&gt;Resolve Conflicts:&lt;br&gt;Versioning &amp;amp; &lt;br&gt;Configurability" style="rounded=1;whiteSpace=wrap;html=1;" parent="1" vertex="1">
          <mxGeometry x="1960" y="790" width="120" height="60" as="geometry" />
        </mxCell>
        <mxCell id="RA9PLU7IPXOXIIU9lRka-10" value="Define Requirements&lt;br&gt;&amp;amp; &lt;br&gt;Design API" style="ellipse;shape=cloud;whiteSpace=wrap;html=1;rounded=1;" parent="1" vertex="1">
          <mxGeometry x="1195" y="470" width="160" height="120" as="geometry" />
        </mxCell>
        <mxCell id="p0jSS4lUg1HJpxXQeDbd-3" style="edgeStyle=orthogonalEdgeStyle;rounded=0;orthogonalLoop=1;jettySize=auto;html=1;entryX=0;entryY=1;entryDx=0;entryDy=0;" edge="1" parent="1" source="RA9PLU7IPXOXIIU9lRka-14" target="p0jSS4lUg1HJpxXQeDbd-1">
          <mxGeometry relative="1" as="geometry" />
        </mxCell>
        <UserObject label="4. &lt;br&gt;Fault Tolerance &amp;amp;&lt;br&gt;Failure Detection" tooltip="How to make a key-value store fault tolerant and able to detect failure.&#xa;&#xa;    Handle temporary failures&#xa;    Handle permanent failures&#xa;         Anti-entropy with Merkle trees&#xa;    Promote membership in the ring to detect failures&#xa;    Conclusion" id="RA9PLU7IPXOXIIU9lRka-14">
          <mxCell style="rounded=1;whiteSpace=wrap;html=1;" parent="1" vertex="1">
            <mxGeometry x="1740" y="1200" width="120" height="80" as="geometry" />
          </mxCell>
        </UserObject>
        <mxCell id="RA9PLU7IPXOXIIU9lRka-32" style="edgeStyle=orthogonalEdgeStyle;rounded=0;orthogonalLoop=1;jettySize=auto;html=1;entryX=0.5;entryY=1;entryDx=0;entryDy=0;" parent="1" source="RA9PLU7IPXOXIIU9lRka-16" target="RA9PLU7IPXOXIIU9lRka-31" edge="1">
          <mxGeometry relative="1" as="geometry" />
        </mxCell>
        <mxCell id="RA9PLU7IPXOXIIU9lRka-33" style="edgeStyle=orthogonalEdgeStyle;rounded=0;orthogonalLoop=1;jettySize=auto;html=1;entryX=0.5;entryY=1;entryDx=0;entryDy=0;" parent="1" source="RA9PLU7IPXOXIIU9lRka-16" target="RA9PLU7IPXOXIIU9lRka-26" edge="1">
          <mxGeometry relative="1" as="geometry" />
        </mxCell>
        <mxCell id="RA9PLU7IPXOXIIU9lRka-34" style="edgeStyle=orthogonalEdgeStyle;rounded=0;orthogonalLoop=1;jettySize=auto;html=1;" parent="1" source="RA9PLU7IPXOXIIU9lRka-16" target="RA9PLU7IPXOXIIU9lRka-27" edge="1">
          <mxGeometry relative="1" as="geometry" />
        </mxCell>
        <mxCell id="RA9PLU7IPXOXIIU9lRka-16" value="Functional Requirements" style="rounded=1;whiteSpace=wrap;html=1;" parent="1" vertex="1">
          <mxGeometry x="1200" y="240" width="120" height="60" as="geometry" />
        </mxCell>
        <mxCell id="RA9PLU7IPXOXIIU9lRka-44" style="edgeStyle=orthogonalEdgeStyle;rounded=0;orthogonalLoop=1;jettySize=auto;html=1;entryX=0.5;entryY=1;entryDx=0;entryDy=0;" parent="1" source="RA9PLU7IPXOXIIU9lRka-17" target="RA9PLU7IPXOXIIU9lRka-30" edge="1">
          <mxGeometry relative="1" as="geometry" />
        </mxCell>
        <mxCell id="RA9PLU7IPXOXIIU9lRka-45" style="edgeStyle=orthogonalEdgeStyle;rounded=0;orthogonalLoop=1;jettySize=auto;html=1;entryX=0.5;entryY=1;entryDx=0;entryDy=0;" parent="1" source="RA9PLU7IPXOXIIU9lRka-17" target="RA9PLU7IPXOXIIU9lRka-29" edge="1">
          <mxGeometry relative="1" as="geometry" />
        </mxCell>
        <mxCell id="RA9PLU7IPXOXIIU9lRka-17" value="Non - Functional Requirements" style="rounded=1;whiteSpace=wrap;html=1;" parent="1" vertex="1">
          <mxGeometry x="1680" y="240" width="120" height="60" as="geometry" />
        </mxCell>
        <mxCell id="RA9PLU7IPXOXIIU9lRka-40" style="edgeStyle=orthogonalEdgeStyle;rounded=0;orthogonalLoop=1;jettySize=auto;html=1;entryX=0.55;entryY=0.95;entryDx=0;entryDy=0;entryPerimeter=0;" parent="1" source="RA9PLU7IPXOXIIU9lRka-22" target="RA9PLU7IPXOXIIU9lRka-38" edge="1">
          <mxGeometry relative="1" as="geometry">
            <Array as="points">
              <mxPoint x="980" y="210" />
              <mxPoint x="1166" y="210" />
            </Array>
          </mxGeometry>
        </mxCell>
        <mxCell id="RA9PLU7IPXOXIIU9lRka-41" style="edgeStyle=orthogonalEdgeStyle;rounded=0;orthogonalLoop=1;jettySize=auto;html=1;entryX=0.508;entryY=0.963;entryDx=0;entryDy=0;entryPerimeter=0;" parent="1" source="RA9PLU7IPXOXIIU9lRka-22" target="RA9PLU7IPXOXIIU9lRka-37" edge="1">
          <mxGeometry relative="1" as="geometry" />
        </mxCell>
        <mxCell id="RA9PLU7IPXOXIIU9lRka-42" style="edgeStyle=orthogonalEdgeStyle;rounded=0;orthogonalLoop=1;jettySize=auto;html=1;entryX=0.55;entryY=0.95;entryDx=0;entryDy=0;entryPerimeter=0;" parent="1" source="RA9PLU7IPXOXIIU9lRka-22" target="RA9PLU7IPXOXIIU9lRka-35" edge="1">
          <mxGeometry relative="1" as="geometry">
            <Array as="points">
              <mxPoint x="980" y="210" />
              <mxPoint x="796" y="210" />
            </Array>
          </mxGeometry>
        </mxCell>
        <mxCell id="RA9PLU7IPXOXIIU9lRka-22" value="Assumptions" style="rounded=1;whiteSpace=wrap;html=1;" parent="1" vertex="1">
          <mxGeometry x="920" y="240" width="120" height="60" as="geometry" />
        </mxCell>
        <mxCell id="RA9PLU7IPXOXIIU9lRka-46" style="edgeStyle=orthogonalEdgeStyle;rounded=0;orthogonalLoop=1;jettySize=auto;html=1;entryX=0.5;entryY=1;entryDx=0;entryDy=0;" parent="1" source="RA9PLU7IPXOXIIU9lRka-24" target="RA9PLU7IPXOXIIU9lRka-28" edge="1">
          <mxGeometry relative="1" as="geometry" />
        </mxCell>
        <mxCell id="RA9PLU7IPXOXIIU9lRka-47" style="edgeStyle=orthogonalEdgeStyle;rounded=0;orthogonalLoop=1;jettySize=auto;html=1;entryX=0.5;entryY=1;entryDx=0;entryDy=0;" parent="1" source="RA9PLU7IPXOXIIU9lRka-24" target="RA9PLU7IPXOXIIU9lRka-43" edge="1">
          <mxGeometry relative="1" as="geometry" />
        </mxCell>
        <mxCell id="RA9PLU7IPXOXIIU9lRka-50" value="Functions" style="edgeLabel;html=1;align=center;verticalAlign=middle;resizable=0;points=[];" parent="RA9PLU7IPXOXIIU9lRka-47" vertex="1" connectable="0">
          <mxGeometry x="-0.6968" y="-2" relative="1" as="geometry">
            <mxPoint as="offset" />
          </mxGeometry>
        </mxCell>
        <mxCell id="RA9PLU7IPXOXIIU9lRka-49" style="edgeStyle=orthogonalEdgeStyle;rounded=0;orthogonalLoop=1;jettySize=auto;html=1;" parent="1" source="RA9PLU7IPXOXIIU9lRka-24" target="RA9PLU7IPXOXIIU9lRka-48" edge="1">
          <mxGeometry relative="1" as="geometry" />
        </mxCell>
        <mxCell id="RA9PLU7IPXOXIIU9lRka-24" value="API Design" style="rounded=1;whiteSpace=wrap;html=1;" parent="1" vertex="1">
          <mxGeometry x="2030" y="240" width="120" height="60" as="geometry" />
        </mxCell>
        <mxCell id="RA9PLU7IPXOXIIU9lRka-26" value="Configurable Service&lt;br&gt;Range of &lt;br&gt;Consistency Models" style="ellipse;whiteSpace=wrap;html=1;" parent="1" vertex="1">
          <mxGeometry x="1080" y="-240" width="120" height="80" as="geometry" />
        </mxCell>
        <mxCell id="RA9PLU7IPXOXIIU9lRka-27" value="Availability over&lt;br&gt;Consistency" style="ellipse;whiteSpace=wrap;html=1;" parent="1" vertex="1">
          <mxGeometry x="1320" y="-240" width="120" height="80" as="geometry" />
        </mxCell>
        <mxCell id="RA9PLU7IPXOXIIU9lRka-28" value="get(KEY)" style="ellipse;whiteSpace=wrap;html=1;" parent="1" vertex="1">
          <mxGeometry x="1920" y="-80" width="120" height="80" as="geometry" />
        </mxCell>
        <mxCell id="RA9PLU7IPXOXIIU9lRka-29" value="Scalability" style="ellipse;whiteSpace=wrap;html=1;" parent="1" vertex="1">
          <mxGeometry x="1560" y="-240" width="120" height="80" as="geometry" />
        </mxCell>
        <mxCell id="RA9PLU7IPXOXIIU9lRka-30" value="Fault Tolerance" style="ellipse;whiteSpace=wrap;html=1;" parent="1" vertex="1">
          <mxGeometry x="1780" y="-240" width="120" height="80" as="geometry" />
        </mxCell>
        <mxCell id="RA9PLU7IPXOXIIU9lRka-31" value="Hardware &lt;br&gt;Heteroginity" style="ellipse;whiteSpace=wrap;html=1;" parent="1" vertex="1">
          <mxGeometry x="1200" y="-410" width="120" height="80" as="geometry" />
        </mxCell>
        <mxCell id="RA9PLU7IPXOXIIU9lRka-35" value="Authentication&lt;br&gt;Authorisation &lt;br&gt;Completed" style="ellipse;shape=cloud;whiteSpace=wrap;html=1;rounded=1;" parent="1" vertex="1">
          <mxGeometry x="730" y="100" width="120" height="80" as="geometry" />
        </mxCell>
        <mxCell id="RA9PLU7IPXOXIIU9lRka-37" value="Request &amp;amp;&lt;br&gt;Response&lt;br&gt;Over HTTPS" style="ellipse;shape=cloud;whiteSpace=wrap;html=1;rounded=1;" parent="1" vertex="1">
          <mxGeometry x="910" y="100" width="130" height="80" as="geometry" />
        </mxCell>
        <mxCell id="RA9PLU7IPXOXIIU9lRka-38" value="Data Center are&lt;br&gt;not Hostile" style="ellipse;shape=cloud;whiteSpace=wrap;html=1;rounded=1;" parent="1" vertex="1">
          <mxGeometry x="1100" y="100" width="120" height="80" as="geometry" />
        </mxCell>
        <mxCell id="RA9PLU7IPXOXIIU9lRka-43" value="put(KEY, VALUE)" style="ellipse;whiteSpace=wrap;html=1;" parent="1" vertex="1">
          <mxGeometry x="2125" y="-80" width="120" height="80" as="geometry" />
        </mxCell>
        <mxCell id="RA9PLU7IPXOXIIU9lRka-48" value="Data Type" style="ellipse;whiteSpace=wrap;html=1;" parent="1" vertex="1">
          <mxGeometry x="2320" y="-80" width="120" height="80" as="geometry" />
        </mxCell>
        <mxCell id="RA9PLU7IPXOXIIU9lRka-58" value="" style="edgeStyle=orthogonalEdgeStyle;rounded=0;orthogonalLoop=1;jettySize=auto;html=1;" parent="1" source="RA9PLU7IPXOXIIU9lRka-55" target="RA9PLU7IPXOXIIU9lRka-57" edge="1">
          <mxGeometry relative="1" as="geometry" />
        </mxCell>
        <mxCell id="RA9PLU7IPXOXIIU9lRka-59" value="Problem" style="edgeLabel;html=1;align=center;verticalAlign=middle;resizable=0;points=[];" parent="RA9PLU7IPXOXIIU9lRka-58" vertex="1" connectable="0">
          <mxGeometry x="0.3226" relative="1" as="geometry">
            <mxPoint as="offset" />
          </mxGeometry>
        </mxCell>
        <mxCell id="RA9PLU7IPXOXIIU9lRka-55" value="Consistent Hashing" style="whiteSpace=wrap;html=1;rounded=1;" parent="1" vertex="1">
          <mxGeometry x="2600" y="200" width="120" height="60" as="geometry" />
        </mxCell>
        <mxCell id="RA9PLU7IPXOXIIU9lRka-61" value="" style="edgeStyle=orthogonalEdgeStyle;rounded=0;orthogonalLoop=1;jettySize=auto;html=1;" parent="1" source="RA9PLU7IPXOXIIU9lRka-57" target="RA9PLU7IPXOXIIU9lRka-60" edge="1">
          <mxGeometry relative="1" as="geometry" />
        </mxCell>
        <mxCell id="RA9PLU7IPXOXIIU9lRka-62" value="Solution" style="edgeLabel;html=1;align=center;verticalAlign=middle;resizable=0;points=[];" parent="RA9PLU7IPXOXIIU9lRka-61" vertex="1" connectable="0">
          <mxGeometry x="-0.04" relative="1" as="geometry">
            <mxPoint as="offset" />
          </mxGeometry>
        </mxCell>
        <mxCell id="RA9PLU7IPXOXIIU9lRka-57" value="&lt;b&gt;HotSpot&lt;/b&gt;" style="ellipse;whiteSpace=wrap;html=1;rounded=1;fillColor=#f8cecc;strokeColor=#b85450;" parent="1" vertex="1">
          <mxGeometry x="2700" y="20" width="80" height="80" as="geometry" />
        </mxCell>
        <mxCell id="RA9PLU7IPXOXIIU9lRka-66" value="" style="edgeStyle=orthogonalEdgeStyle;rounded=0;orthogonalLoop=1;jettySize=auto;html=1;" parent="1" source="RA9PLU7IPXOXIIU9lRka-60" target="RA9PLU7IPXOXIIU9lRka-65" edge="1">
          <mxGeometry relative="1" as="geometry" />
        </mxCell>
        <mxCell id="RA9PLU7IPXOXIIU9lRka-60" value="Virtual Nodes" style="whiteSpace=wrap;html=1;fillColor=#d5e8d4;strokeColor=#82b366;rounded=1;" parent="1" vertex="1">
          <mxGeometry x="2940" y="30" width="120" height="60" as="geometry" />
        </mxCell>
        <mxCell id="RA9PLU7IPXOXIIU9lRka-65" value="Advantages&lt;br&gt;HA &amp;amp;&amp;nbsp;Advantageous for&lt;br&gt;Heterogeneity&lt;br&gt;" style="ellipse;shape=cloud;whiteSpace=wrap;html=1;rounded=1;" parent="1" vertex="1">
          <mxGeometry x="2890" y="-160" width="220" height="120" as="geometry" />
        </mxCell>
        <mxCell id="RA9PLU7IPXOXIIU9lRka-70" value="" style="edgeStyle=orthogonalEdgeStyle;rounded=0;orthogonalLoop=1;jettySize=auto;html=1;" parent="1" source="RA9PLU7IPXOXIIU9lRka-67" target="RA9PLU7IPXOXIIU9lRka-69" edge="1">
          <mxGeometry relative="1" as="geometry">
            <Array as="points">
              <mxPoint x="2760" y="320" />
            </Array>
          </mxGeometry>
        </mxCell>
        <mxCell id="RA9PLU7IPXOXIIU9lRka-72" value="" style="edgeStyle=orthogonalEdgeStyle;rounded=0;orthogonalLoop=1;jettySize=auto;html=1;" parent="1" source="RA9PLU7IPXOXIIU9lRka-67" target="RA9PLU7IPXOXIIU9lRka-71" edge="1">
          <mxGeometry relative="1" as="geometry" />
        </mxCell>
        <mxCell id="RA9PLU7IPXOXIIU9lRka-67" value="Replication" style="whiteSpace=wrap;html=1;rounded=1;" parent="1" vertex="1">
          <mxGeometry x="2720" y="450" width="120" height="60" as="geometry" />
        </mxCell>
        <mxCell id="RA9PLU7IPXOXIIU9lRka-69" value="Primary - Secondary &lt;br&gt;Approach" style="whiteSpace=wrap;html=1;rounded=1;" parent="1" vertex="1">
          <mxGeometry x="2910" y="350" width="120" height="60" as="geometry" />
        </mxCell>
        <mxCell id="RA9PLU7IPXOXIIU9lRka-71" value="Peer to Peer&lt;br&gt;Approach" style="whiteSpace=wrap;html=1;rounded=1;" parent="1" vertex="1">
          <mxGeometry x="3090" y="360" width="120" height="60" as="geometry" />
        </mxCell>
        <mxCell id="RA9PLU7IPXOXIIU9lRka-82" value="Solution" style="edgeStyle=orthogonalEdgeStyle;rounded=0;orthogonalLoop=1;jettySize=auto;html=1;" parent="1" source="RA9PLU7IPXOXIIU9lRka-79" target="RA9PLU7IPXOXIIU9lRka-81" edge="1">
          <mxGeometry relative="1" as="geometry" />
        </mxCell>
        <mxCell id="RA9PLU7IPXOXIIU9lRka-79" value="Data Versioning:&lt;br&gt;Inconsistent or Out of Sync data " style="whiteSpace=wrap;html=1;rounded=1;" parent="1" vertex="1">
          <mxGeometry x="2240" y="660" width="120" height="60" as="geometry" />
        </mxCell>
        <mxCell id="RA9PLU7IPXOXIIU9lRka-84" value="" style="edgeStyle=orthogonalEdgeStyle;rounded=0;orthogonalLoop=1;jettySize=auto;html=1;" parent="1" source="RA9PLU7IPXOXIIU9lRka-81" target="RA9PLU7IPXOXIIU9lRka-83" edge="1">
          <mxGeometry relative="1" as="geometry" />
        </mxCell>
        <mxCell id="RA9PLU7IPXOXIIU9lRka-86" value="" style="edgeStyle=orthogonalEdgeStyle;rounded=0;orthogonalLoop=1;jettySize=auto;html=1;" parent="1" source="RA9PLU7IPXOXIIU9lRka-81" target="RA9PLU7IPXOXIIU9lRka-85" edge="1">
          <mxGeometry relative="1" as="geometry" />
        </mxCell>
        <mxCell id="RA9PLU7IPXOXIIU9lRka-81" value="Track Causality " style="whiteSpace=wrap;html=1;rounded=1;" parent="1" vertex="1">
          <mxGeometry x="2520" y="660" width="120" height="60" as="geometry" />
        </mxCell>
        <mxCell id="RA9PLU7IPXOXIIU9lRka-88" value="" style="edgeStyle=orthogonalEdgeStyle;rounded=0;orthogonalLoop=1;jettySize=auto;html=1;" parent="1" source="RA9PLU7IPXOXIIU9lRka-83" target="RA9PLU7IPXOXIIU9lRka-87" edge="1">
          <mxGeometry relative="1" as="geometry" />
        </mxCell>
        <mxCell id="RA9PLU7IPXOXIIU9lRka-83" value="Use Time Stamp" style="whiteSpace=wrap;html=1;rounded=1;" parent="1" vertex="1">
          <mxGeometry x="2720" y="560" width="120" height="60" as="geometry" />
        </mxCell>
        <mxCell id="RA9PLU7IPXOXIIU9lRka-90" value="" style="edgeStyle=orthogonalEdgeStyle;rounded=0;orthogonalLoop=1;jettySize=auto;html=1;" parent="1" source="RA9PLU7IPXOXIIU9lRka-85" target="RA9PLU7IPXOXIIU9lRka-89" edge="1">
          <mxGeometry relative="1" as="geometry">
            <Array as="points">
              <mxPoint x="3300" y="760" />
            </Array>
          </mxGeometry>
        </mxCell>
        <mxCell id="RA9PLU7IPXOXIIU9lRka-94" value="What is Vector Clock?" style="edgeLabel;html=1;align=center;verticalAlign=middle;resizable=0;points=[];" parent="RA9PLU7IPXOXIIU9lRka-90" vertex="1" connectable="0">
          <mxGeometry x="0.0466" relative="1" as="geometry">
            <mxPoint as="offset" />
          </mxGeometry>
        </mxCell>
        <mxCell id="RA9PLU7IPXOXIIU9lRka-92" value="" style="edgeStyle=orthogonalEdgeStyle;rounded=0;orthogonalLoop=1;jettySize=auto;html=1;" parent="1" source="RA9PLU7IPXOXIIU9lRka-85" edge="1">
          <mxGeometry relative="1" as="geometry">
            <mxPoint x="3200" y="860" as="targetPoint" />
          </mxGeometry>
        </mxCell>
        <mxCell id="RA9PLU7IPXOXIIU9lRka-95" style="edgeStyle=orthogonalEdgeStyle;rounded=0;orthogonalLoop=1;jettySize=auto;html=1;entryX=0.5;entryY=0;entryDx=0;entryDy=0;" parent="1" source="RA9PLU7IPXOXIIU9lRka-85" edge="1">
          <mxGeometry relative="1" as="geometry">
            <mxPoint x="3040" y="870" as="targetPoint" />
            <Array as="points">
              <mxPoint x="3200" y="780" />
              <mxPoint x="3200" y="820" />
              <mxPoint x="3040" y="820" />
            </Array>
          </mxGeometry>
        </mxCell>
        <mxCell id="RA9PLU7IPXOXIIU9lRka-105" value="Limitations" style="edgeLabel;html=1;align=center;verticalAlign=middle;resizable=0;points=[];" parent="RA9PLU7IPXOXIIU9lRka-95" vertex="1" connectable="0">
          <mxGeometry x="-0.45" relative="1" as="geometry">
            <mxPoint as="offset" />
          </mxGeometry>
        </mxCell>
        <mxCell id="RA9PLU7IPXOXIIU9lRka-85" value="Vector Clocks" style="whiteSpace=wrap;html=1;rounded=1;fillColor=#dae8fc;strokeColor=#6c8ebf;" parent="1" vertex="1">
          <mxGeometry x="2720" y="750" width="120" height="60" as="geometry" />
        </mxCell>
        <mxCell id="RA9PLU7IPXOXIIU9lRka-87" value="&lt;font style=&quot;font-size: 10px;&quot;&gt; unreliable in distributed &lt;br&gt;systems due to &lt;br&gt;potential clock skews&lt;/font&gt;" style="ellipse;shape=cloud;whiteSpace=wrap;html=1;rounded=1;" parent="1" vertex="1">
          <mxGeometry x="2920" y="540" width="130" height="100" as="geometry" />
        </mxCell>
        <mxCell id="RA9PLU7IPXOXIIU9lRka-89" value="a list of (node, counter) pairs &lt;br&gt;that capture the order and &lt;br&gt;causality of updates across nodes." style="ellipse;shape=cloud;whiteSpace=wrap;html=1;rounded=1;" parent="1" vertex="1">
          <mxGeometry x="3180" y="590" width="240" height="110" as="geometry" />
        </mxCell>
        <mxCell id="RA9PLU7IPXOXIIU9lRka-104" value="" style="edgeStyle=orthogonalEdgeStyle;rounded=0;orthogonalLoop=1;jettySize=auto;html=1;" parent="1" source="RA9PLU7IPXOXIIU9lRka-100" target="RA9PLU7IPXOXIIU9lRka-103" edge="1">
          <mxGeometry relative="1" as="geometry" />
        </mxCell>
        <mxCell id="RA9PLU7IPXOXIIU9lRka-106" value="" style="edgeStyle=orthogonalEdgeStyle;rounded=0;orthogonalLoop=1;jettySize=auto;html=1;" parent="1" source="RA9PLU7IPXOXIIU9lRka-100" edge="1">
          <mxGeometry relative="1" as="geometry">
            <mxPoint x="3330" y="970" as="targetPoint" />
            <Array as="points">
              <mxPoint x="3120" y="910" />
              <mxPoint x="3120" y="1010" />
              <mxPoint x="3200" y="1010" />
            </Array>
          </mxGeometry>
        </mxCell>
        <mxCell id="RA9PLU7IPXOXIIU9lRka-107" value="Solution" style="edgeLabel;html=1;align=center;verticalAlign=middle;resizable=0;points=[];" parent="RA9PLU7IPXOXIIU9lRka-106" vertex="1" connectable="0">
          <mxGeometry x="0.4532" relative="1" as="geometry">
            <mxPoint as="offset" />
          </mxGeometry>
        </mxCell>
        <mxCell id="RA9PLU7IPXOXIIU9lRka-100" value="Multiple Servers&lt;br&gt;Writing at &lt;br&gt;Once" style="ellipse;whiteSpace=wrap;html=1;aspect=fixed;" parent="1" vertex="1">
          <mxGeometry x="3000" y="870" width="80" height="80" as="geometry" />
        </mxCell>
        <mxCell id="RA9PLU7IPXOXIIU9lRka-101" value="Large Size of System" style="ellipse;whiteSpace=wrap;html=1;aspect=fixed;" parent="1" vertex="1">
          <mxGeometry x="3160" y="860" width="80" height="80" as="geometry" />
        </mxCell>
        <mxCell id="RA9PLU7IPXOXIIU9lRka-103" value="In case of &lt;br&gt;Node failures/&lt;br&gt;Network &lt;br&gt;Partitions" style="ellipse;shape=cloud;whiteSpace=wrap;html=1;" parent="1" vertex="1">
          <mxGeometry x="2980" y="1000" width="120" height="80" as="geometry" />
        </mxCell>
        <mxCell id="RA9PLU7IPXOXIIU9lRka-110" value="" style="edgeStyle=orthogonalEdgeStyle;rounded=0;orthogonalLoop=1;jettySize=auto;html=1;" parent="1" source="RA9PLU7IPXOXIIU9lRka-108" target="RA9PLU7IPXOXIIU9lRka-109" edge="1">
          <mxGeometry relative="1" as="geometry" />
        </mxCell>
        <mxCell id="RA9PLU7IPXOXIIU9lRka-108" value="Clock Truncation &lt;br&gt;Strategy" style="ellipse;whiteSpace=wrap;html=1;" parent="1" vertex="1">
          <mxGeometry x="3330" y="930" width="120" height="80" as="geometry" />
        </mxCell>
        <mxCell id="RA9PLU7IPXOXIIU9lRka-109" value="Limit Vector&lt;br&gt;Clock Size" style="ellipse;whiteSpace=wrap;html=1;" parent="1" vertex="1">
          <mxGeometry x="3520" y="840" width="80" height="80" as="geometry" />
        </mxCell>
        <mxCell id="RA9PLU7IPXOXIIU9lRka-113" value="" style="endArrow=none;dashed=1;html=1;dashPattern=8 8;strokeWidth=2;rounded=0;entryX=0.494;entryY=-0.063;entryDx=0;entryDy=0;entryPerimeter=0;" parent="1" source="RA9PLU7IPXOXIIU9lRka-79" target="RA9PLU7IPXOXIIU9lRka-109" edge="1">
          <mxGeometry width="50" height="50" relative="1" as="geometry">
            <mxPoint x="2840" y="780" as="sourcePoint" />
            <mxPoint x="3480" y="810" as="targetPoint" />
            <Array as="points">
              <mxPoint x="2390" y="570" />
              <mxPoint x="2660" y="540" />
              <mxPoint x="3040" y="530" />
              <mxPoint x="3430" y="570" />
            </Array>
          </mxGeometry>
        </mxCell>
        <mxCell id="RA9PLU7IPXOXIIU9lRka-114" value="Consequences" style="edgeLabel;html=1;align=center;verticalAlign=middle;resizable=0;points=[];" parent="RA9PLU7IPXOXIIU9lRka-113" vertex="1" connectable="0">
          <mxGeometry x="0.7838" y="2" relative="1" as="geometry">
            <mxPoint as="offset" />
          </mxGeometry>
        </mxCell>
        <mxCell id="RA9PLU7IPXOXIIU9lRka-116" value="  Descendant linkages (causality) cannot be precisely calculated" style="shape=callout;whiteSpace=wrap;html=1;perimeter=calloutPerimeter;" parent="1" vertex="1">
          <mxGeometry x="3470" y="590" width="160" height="90" as="geometry" />
        </mxCell>
        <mxCell id="whu7A1zw2ntHZbnsxig_-3" value="Causality refers to the relationship between two events or operations &lt;br/&gt;where one event is the consequence or effect of the other event which is&lt;br/&gt; the cause." style="shape=callout;whiteSpace=wrap;html=1;perimeter=calloutPerimeter;rotation=0;base=10;fillColor=#fff2cc;strokeColor=#d6b656;" parent="1" vertex="1">
          <mxGeometry x="2510" y="505" width="120" height="190" as="geometry" />
        </mxCell>
        <UserObject label="Handle Temporary Failure" tooltip="Here&#39;s a summary of the given topic on handling temporary failures in distributed systems:&#xa;&#xa;The topic discusses the use of a sloppy quorum approach instead of a strict quorum approach to handle temporary failures in distributed systems. In a strict quorum approach, if a server participating in the consensus is down, certain operations cannot be performed, affecting the system&#39;s availability and durability.&#xa;&#xa;To address this, the sloppy quorum approach allows the first n healthy nodes from the preference list to handle read and write operations, even if they are not the initially designated nodes. If a node is temporarily unavailable during a write operation, the request is sent to the next healthy node, which processes the request and includes a hint about the intended receiver node.&#xa;&#xa;Once the intended receiver node becomes available again, the processing node sends the request information to it, allowing it to update its data. After the transfer, the processing node removes the data from its local storage without affecting the total number of replicas in the system. This approach is called a hinted handoff and ensures desired availability and durability during temporary node failures.&#xa;&#xa;Additionally, the topic emphasizes the importance of replicating data across data centers to handle data center failures due to various reasons, such as power outages, cooling failures, network failures, or natural disasters. If one data center is down, the data can be recovered from the other data centers." id="p0jSS4lUg1HJpxXQeDbd-1">
          <mxCell style="whiteSpace=wrap;html=1;shape=partialRectangle;top=0;left=0;bottom=1;right=0;points=[[0,1],[1,1]];fillColor=none;align=center;verticalAlign=bottom;routingCenterY=0.5;snapToPoint=1;recursiveResize=0;autosize=1;treeFolding=1;treeMoving=1;newEdgeStyle={&quot;edgeStyle&quot;:&quot;entityRelationEdgeStyle&quot;,&quot;startArrow&quot;:&quot;none&quot;,&quot;endArrow&quot;:&quot;none&quot;,&quot;segment&quot;:10,&quot;curved&quot;:1,&quot;sourcePerimeterSpacing&quot;:0,&quot;targetPerimeterSpacing&quot;:0};" vertex="1" parent="1">
            <mxGeometry x="1960" y="1060" width="180" height="30" as="geometry" />
          </mxCell>
        </UserObject>
        <UserObject label="Handle Permanent Failure" tooltip="Sure, I&#39;ll explain the topic in a simple manner, with a focus on the Merkle tree and its purpose.&#xa;&#xa;In a distributed system, it&#39;s important to handle permanent failures of nodes to ensure durability and data consistency. One way to achieve this is by keeping replicas synchronized across nodes. However, this process can be inefficient if it involves transferring a large amount of data or checking the entire dataset for inconsistencies.&#xa;&#xa;This is where Merkle trees come into play. A Merkle tree is a data structure that helps in efficient data verification and synchronization.&#xa;&#xa;Here&#39;s how it works:&#xa;&#xa;1. The individual key-value pairs in the dataset are hashed, and these hashes become the leaf nodes of the Merkle tree.&#xa;2. The parent nodes of the tree contain the hashes of their respective child nodes.&#xa;3. This structure continues up to the root node, which represents the hash of the entire dataset.&#xa;&#xa;The purpose of using a Merkle tree is to quickly identify inconsistencies between replicas without having to transfer or check the entire dataset. Here&#39;s how it works:&#xa;&#xa;1. Each node maintains a separate Merkle tree for the key ranges it is responsible for.&#xa;2. Nodes exchange the root hashes of their Merkle trees for the common key ranges.&#xa;3. If the root hashes match, it means the data is consistent, and no further action is needed.&#xa;4. If the root hashes differ, the nodes recursively compare the child node hashes to identify the specific key ranges that are inconsistent.&#xa;5. Only the inconsistent key ranges need to be synchronized, reducing the amount of data transfer required.&#xa;&#xa;The advantage of using Merkle trees is that it allows independent verification of different branches of the tree without requiring the complete dataset to be transferred or checked. This reduces the amount of data that needs to be exchanged for synchronization and the number of disk accesses required during the anti-entropy process (ensuring data consistency across replicas).&#xa;&#xa;However, one disadvantage is that when a node joins or leaves the system, the hashes in the Merkle tree need to be recalculated for the affected key ranges, as multiple key ranges are impacted.&#xa;&#xa;In summary, Merkle trees provide an efficient way to detect and synchronize inconsistencies between replicas in a distributed system, minimizing the amount of data transfer and disk access required, thereby improving the overall performance and reliability of the system." id="p0jSS4lUg1HJpxXQeDbd-2">
          <mxCell style="whiteSpace=wrap;html=1;shape=partialRectangle;top=0;left=0;bottom=1;right=0;points=[[0,1],[1,1]];fillColor=none;align=center;verticalAlign=bottom;routingCenterY=0.5;snapToPoint=1;recursiveResize=0;autosize=1;treeFolding=1;treeMoving=1;newEdgeStyle={&quot;edgeStyle&quot;:&quot;entityRelationEdgeStyle&quot;,&quot;startArrow&quot;:&quot;none&quot;,&quot;endArrow&quot;:&quot;none&quot;,&quot;segment&quot;:10,&quot;curved&quot;:1,&quot;sourcePerimeterSpacing&quot;:0,&quot;targetPerimeterSpacing&quot;:0};" vertex="1" parent="1">
            <mxGeometry x="1960" y="1370" width="180" height="30" as="geometry" />
          </mxCell>
        </UserObject>
        <mxCell id="p0jSS4lUg1HJpxXQeDbd-4" style="edgeStyle=orthogonalEdgeStyle;rounded=0;orthogonalLoop=1;jettySize=auto;html=1;entryX=-0.007;entryY=0.656;entryDx=0;entryDy=0;entryPerimeter=0;" edge="1" parent="1" source="RA9PLU7IPXOXIIU9lRka-14" target="p0jSS4lUg1HJpxXQeDbd-2">
          <mxGeometry relative="1" as="geometry">
            <Array as="points">
              <mxPoint x="1960" y="1240" />
              <mxPoint x="1960" y="1390" />
            </Array>
          </mxGeometry>
        </mxCell>
        <UserObject label="Merkel Tree" tooltip="The purpose of using a Merkle tree is to quickly identify inconsistencies between replicas without having to transfer or check the entire dataset. Here&#39;s how it works:&#xa;&#xa;1. Each node maintains a separate Merkle tree for the key ranges it is responsible for.&#xa;2. Nodes exchange the root hashes of their Merkle trees for the common key ranges.&#xa;3. If the root hashes match, it means the data is consistent, and no further action is needed.&#xa;4. If the root hashes differ, the nodes recursively compare the child node hashes to identify the specific key ranges that are inconsistent.&#xa;5. Only the inconsistent key ranges need to be synchronized, reducing the amount of data transfer required.&#xa;&#xa;The advantage of using Merkle trees is that it allows independent verification of different branches of the tree without requiring the complete dataset to be transferred or checked. This reduces the amount of data that needs to be exchanged for synchronization and the number of disk accesses required during the anti-entropy process (ensuring data consistency across replicas).&#xa;&#xa;However, one disadvantage is that when a node joins or leaves the system, the hashes in the Merkle tree need to be recalculated for the affected key ranges, as multiple key ranges are impacted.&#xa;&#xa;In summary, Merkle trees provide an efficient way to detect and synchronize inconsistencies between replicas in a distributed system, minimizing the amount of data transfer and disk access required, thereby improving the overall performance and reliability of the system." id="p0jSS4lUg1HJpxXQeDbd-5">
          <mxCell style="whiteSpace=wrap;html=1;rounded=1;arcSize=50;align=center;verticalAlign=middle;strokeWidth=1;autosize=1;spacing=4;treeFolding=1;treeMoving=1;newEdgeStyle={&quot;edgeStyle&quot;:&quot;entityRelationEdgeStyle&quot;,&quot;startArrow&quot;:&quot;none&quot;,&quot;endArrow&quot;:&quot;none&quot;,&quot;segment&quot;:10,&quot;curved&quot;:1,&quot;sourcePerimeterSpacing&quot;:0,&quot;targetPerimeterSpacing&quot;:0};fillColor=#d5e8d4;strokeColor=#82b366;" vertex="1" parent="1">
            <mxGeometry x="2315" y="1370" width="110" height="30" as="geometry" />
          </mxCell>
        </UserObject>
        <mxCell id="p0jSS4lUg1HJpxXQeDbd-6" style="edgeStyle=entityRelationEdgeStyle;rounded=0;orthogonalLoop=1;jettySize=auto;html=1;startArrow=none;endArrow=none;segment=10;curved=1;sourcePerimeterSpacing=0;targetPerimeterSpacing=0;entryX=0.106;entryY=0.967;entryDx=0;entryDy=0;entryPerimeter=0;" edge="1" parent="1" source="p0jSS4lUg1HJpxXQeDbd-2" target="p0jSS4lUg1HJpxXQeDbd-5">
          <mxGeometry relative="1" as="geometry" />
        </mxCell>
        <UserObject label="Gossip Protocols" tooltip="A gossip protocol is a decentralized communication protocol used in distributed systems to share and disseminate information among nodes in an efficient and fault-tolerant manner. It is particularly useful in large-scale distributed systems where centralized communication or coordination may not be feasible or desirable.&#xa;&#xa;In a gossip protocol, each node periodically exchanges information with a subset of randomly selected peers (other nodes in the system). This information can include updates, membership changes, or any other data that needs to be shared across the system. The gossip mechanism ensures that the information eventually propagates to all nodes in the system, even if some nodes are temporarily unavailable or fail.&#xa;&#xa;Here&#39;s a general overview of how a gossip protocol works:&#xa;&#xa;1. Each node maintains a partial view of the system, which includes a list of other nodes (often called a &quot;gossip list&quot; or &quot;peer list&quot;).&#xa;2. At regular intervals, a node selects one or more nodes from its peer list randomly and sends them the latest information it has.&#xa;3. The receiving nodes merge the received information with their own local state and update their peer lists if necessary.&#xa;4. The receiving nodes, in turn, gossip the updated information to other randomly selected peers in subsequent rounds.&#xa;5. Through this repeated process of sharing and propagating information, updates eventually reach all nodes in the system.&#xa;&#xa;Gossip protocols are used in various contexts in distributed systems, including:&#xa;&#xa;1. Membership management: Nodes use gossip to share information about new nodes joining the system or existing nodes leaving or failing. This helps maintain an up-to-date view of the system&#39;s membership.&#xa;&#xa;2. Data dissemination: Gossip can be used to propagate updates or changes to data across the nodes in the system, ensuring eventual consistency.&#xa;&#xa;3. Failure detection: By monitoring the responsiveness of peers during gossip exchanges, nodes can detect potential failures or unreachable nodes.&#xa;&#xa;4. Load balancing: Gossip protocols can help distribute load information across nodes, enabling better load balancing decisions.&#xa;&#xa;Gossip protocols offer several advantages, such as decentralized operation, fault tolerance, high scalability, and low overhead. They are particularly useful in large-scale distributed systems where centralized coordination may become a bottleneck or a single point of failure.&#xa;&#xa;However, gossip protocols also have some limitations, such as potential inconsistencies during convergence periods and the possibility of message redundancy or duplication. These limitations are often addressed by careful protocol design and tuning parameters like gossip intervals and fanout factors (the number of peers to gossip with)." id="p0jSS4lUg1HJpxXQeDbd-7">
          <mxCell style="whiteSpace=wrap;html=1;rounded=1;arcSize=50;align=center;verticalAlign=middle;strokeWidth=1;autosize=1;spacing=4;treeFolding=1;treeMoving=1;newEdgeStyle={&quot;edgeStyle&quot;:&quot;entityRelationEdgeStyle&quot;,&quot;startArrow&quot;:&quot;none&quot;,&quot;endArrow&quot;:&quot;none&quot;,&quot;segment&quot;:10,&quot;curved&quot;:1,&quot;sourcePerimeterSpacing&quot;:0,&quot;targetPerimeterSpacing&quot;:0};fillColor=#d5e8d4;strokeColor=#82b366;" vertex="1" parent="1">
            <mxGeometry x="2300" y="1605" width="140" height="30" as="geometry" />
          </mxCell>
        </UserObject>
        <UserObject label="Promote Membership&lt;br&gt;in the ring to detect failures" tooltip="Sure, let me explain the paragraph in simpler terms:&#xa;&#xa;The paragraph discusses how to handle node failures and membership changes in a distributed system using a gossip protocol.&#xa;&#xa;Nodes in the system can go offline temporarily or permanently. When a single node goes offline, the system should not immediately rebalance or reassign the data partitions managed by that node because it is likely a temporary failure, and the node may come back online soon.&#xa;&#xa;However, if a node is being added or removed from the system permanently, it is called a membership change, and this should be handled carefully.&#xa;&#xa;To handle membership changes, the system uses a gossip protocol. Here&#39;s how it works:&#xa;&#xa;1. Each node maintains a list of other nodes called a &quot;token set.&quot;&#xa;2. When a node starts up, it randomly adds a few nodes from the system to its token set.&#xa;3. If a node makes any changes (like adding or removing data), it communicates these changes to the nodes in its token set.&#xa;4. The nodes in the token set, in turn, communicate the changes to other nodes in their respective token sets.&#xa;5. Through this process of &quot;gossiping&quot; or sharing information, every node eventually learns about the changes made by other nodes in the system, including membership changes.&#xa;&#xa;This way, when a new node joins or an existing node leaves the system permanently, this information is gradually shared with all the nodes through the gossip protocol, and the system can update its membership accordingly.&#xa;&#xa;The paragraph also explains how nodes detect temporary failures. If a node fails to communicate with any of the nodes in its token set for a certain period, it assumes that the node is temporarily offline. However, if the node remains unreachable for an extended period, the system considers it a permanent failure and notifies the administrators.&#xa;&#xa;In summary, the system uses a gossip protocol to share information about membership changes (permanent additions or removals of nodes) and to detect temporary node failures based on communication timeouts. This allows the system to handle failures and membership changes in a decentralized and efficient manner." id="p0jSS4lUg1HJpxXQeDbd-8">
          <mxCell style="whiteSpace=wrap;html=1;shape=partialRectangle;top=0;left=0;bottom=1;right=0;points=[[0,1],[1,1]];fillColor=none;align=center;verticalAlign=bottom;routingCenterY=0.5;snapToPoint=1;recursiveResize=0;autosize=1;treeFolding=1;treeMoving=1;newEdgeStyle={&quot;edgeStyle&quot;:&quot;entityRelationEdgeStyle&quot;,&quot;startArrow&quot;:&quot;none&quot;,&quot;endArrow&quot;:&quot;none&quot;,&quot;segment&quot;:10,&quot;curved&quot;:1,&quot;sourcePerimeterSpacing&quot;:0,&quot;targetPerimeterSpacing&quot;:0};" vertex="1" parent="1">
            <mxGeometry x="1960" y="1600" width="180" height="40" as="geometry" />
          </mxCell>
        </UserObject>
        <mxCell id="p0jSS4lUg1HJpxXQeDbd-9" style="edgeStyle=orthogonalEdgeStyle;rounded=0;orthogonalLoop=1;jettySize=auto;html=1;entryX=-0.007;entryY=0.708;entryDx=0;entryDy=0;entryPerimeter=0;" edge="1" parent="1" source="RA9PLU7IPXOXIIU9lRka-14" target="p0jSS4lUg1HJpxXQeDbd-8">
          <mxGeometry relative="1" as="geometry" />
        </mxCell>
        <mxCell id="p0jSS4lUg1HJpxXQeDbd-10" style="edgeStyle=entityRelationEdgeStyle;rounded=0;orthogonalLoop=1;jettySize=auto;html=1;startArrow=none;endArrow=none;segment=10;curved=1;sourcePerimeterSpacing=0;targetPerimeterSpacing=0;entryX=0.067;entryY=1.089;entryDx=0;entryDy=0;entryPerimeter=0;" edge="1" parent="1" source="p0jSS4lUg1HJpxXQeDbd-8" target="p0jSS4lUg1HJpxXQeDbd-7">
          <mxGeometry relative="1" as="geometry" />
        </mxCell>
      </root>
    </mxGraphModel>
  </diagram>
</mxfile>
